# xmcd
#
# Track frame offsets:
#	150
#	12980
#	40357
#	70795
#	91052
#	102129
#	108790
#	120502
#	128415
#	146127
#	160017
#	170880
#	180867
#	195325
#	210217
#	218157
#	229785
#	242527
#	257427
#	281655
#
# Disc length: 4236 seconds
#
# Revision: 0
# Processed by: cddbd v1.5.2PL0 Copyright (c) Steve Scherf et al.
# Submitted via: EasyCDDAExtractor 16.0.6.1
#
DISCID=fe108a14
DTITLE=Άνευ ερμηνευτού - Νογώ-Ψαραντώνης
DYEAR=1998
DGENRE=Κρητική
TTITLE0=Ύμνος Ψηλορείτη [οργανικό]
TTITLE1=Αιθέρας [οργανικό]
TTITLE2=Πεντοζάλια [οργανικό]
TTITLE3=Παλμός [οργανικό]
TTITLE4=Λυράκια [οργανικό]
TTITLE5=Σπαθιές [οργ., παραδοσιακό, διασκ. Ψαραντώνη]
TTITLE6=Καστρινός [οργανικό]
TTITLE7=Σόλο λύρα [οργανικό]
TTITLE8=Ταξίδι [οργανικό]
TTITLE9=Χανιώτικα συρτά [οργανικό]
TTITLE10=Γυρισμός [οργανικό]
TTITLE11=Πηδηχτός [οργ., παραδοσιακό, διασκ. Ψαραντώνη]
TTITLE12=Χορός Κουρήτων [οργανικό]
TTITLE13=Η μνήμη που πληγώνει [οργανικό]
TTITLE14=Κοίτα τα βουνά [οργανικό]
TTITLE15=Όμορφος πού 'ναι ο κήπος [οργανικό]
TTITLE16=Καταιγίδα [οργανικό]
TTITLE17=Έχουν όλοι τους πεθάνει [οργανικό]
TTITLE18=Θέρος [οργ., Χαράλαμπου Ξυλούρη, Μανώλη Πάππου]
TTITLE19=Χαντίπερας [οργανικό]
EXTD=
EXTT0=
EXTT1=
EXTT2=
EXTT3=
EXTT4=
EXTT5=
EXTT6=
EXTT7=
EXTT8=
EXTT9=
EXTT10=
EXTT11=
EXTT12=
EXTT13=
EXTT14=
EXTT15=
EXTT16=
EXTT17=
EXTT18=
EXTT19=
PLAYORDER=
